<?xml version="1.0" encoding="UTF-8" standalone="no"?>
<!-- Created with Inkscape (http://www.inkscape.org/) -->

<svg
   xmlns:dc="http://purl.org/dc/elements/1.1/"
   xmlns:cc="http://creativecommons.org/ns#"
   xmlns:rdf="http://www.w3.org/1999/02/22-rdf-syntax-ns#"
   xmlns:svg="http://www.w3.org/2000/svg"
   xmlns="http://www.w3.org/2000/svg"
   xmlns:xlink="http://www.w3.org/1999/xlink"
   xmlns:sodipodi="http://sodipodi.sourceforge.net/DTD/sodipodi-0.dtd"
   xmlns:inkscape="http://www.inkscape.org/namespaces/inkscape"
   width="63mm"
   height="67mm"
   viewBox="0 0 63 67"
   version="1.1"
   id="svg8"
   inkscape:version="0.92.2 (5c3e80d, 2017-08-06)"
   sodipodi:docname="mobileLogo.svg">
  <defs
     id="defs2" />
  <sodipodi:namedview
     id="base"
     pagecolor="#ffffff"
     bordercolor="#666666"
     borderopacity="1.0"
     inkscape:pageopacity="0.0"
     inkscape:pageshadow="2"
     inkscape:zoom="2.8"
     inkscape:cx="102.63466"
     inkscape:cy="77.122895"
     inkscape:document-units="mm"
     inkscape:current-layer="layer1"
     showgrid="false"
     inkscape:window-width="1920"
     inkscape:window-height="1001"
     inkscape:window-x="-9"
     inkscape:window-y="-9"
     inkscape:window-maximized="1" />
  <metadata
     id="metadata5">
    <rdf:RDF>
      <cc:Work
         rdf:about="">
        <dc:format>image/svg+xml</dc:format>
        <dc:type
           rdf:resource="http://purl.org/dc/dcmitype/StillImage" />
        <dc:title></dc:title>
      </cc:Work>
    </rdf:RDF>
  </metadata>
  <g
     inkscape:label="Layer 1"
     inkscape:groupmode="layer"
     id="layer1"
     transform="translate(0,-230)">
    <g
       id="g893"
       transform="matrix(0.44912184,0,0,0.45221831,-64.170533,228.75822)"
       style="stroke-width:0.58709222">
      <g
         display="none"
         id="Layer_1_1_"
         style="display:none;stroke-width:0.58709222">
        <image
           sodipodi:absref="C:\Users\Claudia\Documents\GitHub\website\graphic\logo\../../../../../Desktop/Graphic Design material/Matteuan/Logos/3D0A33F1.jpg"
           xlink:href="../../../../../Desktop/Graphic Design material/Matteuan/Logos/3D0A33F1.jpg"
           style="display:inline;overflow:visible;opacity:0.3;stroke-width:0.58709222"
           display="inline"
           overflow="visible"
           enable-background="new    "
           width="2005"
           height="4007"
           transform="matrix(0.3074,0,0,0.3074,-14.5444,-7.9077)"
           id="image815" />
      </g>
      <g
         id="Layer_2"
         style="stroke-width:0.58709222">
        <g
           id="g822"
           style="stroke-width:0.58709222">
          <path
             id="path818"
             d="m 176.646,121.209 c -5.652,-7.541 -26.341,-38.865 -4.509,-71.124 l -2.484,-1.682 c -22.958,33.922 -1.219,66.992 4.824,74.876 5.341,6.969 6.505,19.193 6.576,21.83 0,0 6.43574,-8.63829 -4.407,-23.9 z"
             inkscape:connector-curvature="0"
             style="fill:#fdc314;stroke-width:0.58709222"
             sodipodi:nodetypes="cccccc" />
          <path
             id="path820"
             d="m 404.351,96.36 c 0.239,-0.328 -0.01,-0.903 0,0 z"
             inkscape:connector-curvature="0"
             style="fill:#fdc314;stroke-width:0.58709222" />
        </g>
        <g
           id="g826"
           style="stroke-width:0.58709222">
          <path
             id="path824"
             d="m 188.85,38.232 c -3.042,3.236 -2.585,8.361 -2.962,10.796 l 17.221,-9.559 v 0 l -19.539,14.277 0.329,-4.278 c 0.408,-2.953 0.403,-4.483 1.25,-6.625 -4.759,3.481 -11.488,10.303 -11.826,10.54 l -1.057,0.742 -0.891,-0.935 c -0.151,-0.158 -2.346,-2.553 -1.926,-7.135 -0.804,1.039 -1.583,2.046 -2.302,2.976 l -2.124,4.437 -1.832,-4.5 c -0.116,-0.431 -2.79,-11.44 3.707,-21.75 5.761,-9.142 18.069,-14.964 33.913,-17.912 39.748,-7.399 54.333,11.135 61.343,20.041 0.749,0.951 1.396,1.773 1.983,2.454 6.731,7.794 16.392,32.079 11.979,48.373 -0.564,2.083 -1.229,4.414 -1.948,6.929 -4.703,16.47 -11.81,41.359 -6.763,54.819 v 0 c -5.395,-14.386 -0.933,-38.794 3.878,-55.643 0.714,-2.5 1.376,-4.818 1.937,-6.889 4.088,-15.097 -5.157,-38.451 -11.354,-45.627 -0.633,-0.732 -1.299,-1.579 -2.07,-2.559 -7.154,-9.09 -20.471,-26.01 -58.437,-18.947 -14.959,2.783 -25.235,8.443 -30.541,16.823 -3.691,5.83 -4.573,13.871 -4.358,17.431 1.067,-1.378 3.469,-4.915 4.813,-6.646 1.486,-1.915 3.274,-3.696 4.708,-4.813 1.919,-1.494 3.875,-2.477 4.206,-2.894 v 0 c -0.355,0.477 -0.911,1.214 -1.704,2.261 -5.365,7.081 -6.689,14.302 -5.898,16.206 2.969,-2.656 12.629,-9.362 15.79,-11.996 l 0.475,-0.397"
             inkscape:connector-curvature="0"
             style="fill:#fdc314;stroke-width:0.58709222" />
        </g>
      </g>
      <g
         id="Layer_3"
         style="stroke-width:0.58709222">
        <path
           id="path829"
           d="m 175.693,85.25 c 0,0 -29.5,18.375 -24.125,22.75 5.375,4.375 14.619,9.609 35.25,9.125 26.625,-0.625 10.138,-8.574 10.138,-8.574 -1.37,-1.012 -8.355,-4.459 -11.888,-14.051 -2.625,-7.125 -8.202,-9.995 -9.375,-9.25 z"
           stroke-miterlimit="10"
           inkscape:connector-curvature="0"
           style="fill:#f15a39;stroke:#f1593a;stroke-width:1.76127672;stroke-miterlimit:10" />
      </g>
      <g
         id="Layer_4"
         style="stroke-width:0.58709222">
        <g
           id="g836"
           style="stroke-width:0.58709222">
          <g
             id="g834"
             style="stroke-width:0.58709222">
            <ellipse
               id="ellipse832"
               ry="9.25"
               rx="5.5300002"
               cy="73.625"
               cx="196.506"
               style="fill:#3c3333;stroke-width:0.58709222" />
          </g>
        </g>
        <g
           id="g842"
           style="stroke-width:0.58709222">
          <g
             id="g840"
             style="stroke-width:0.58709222">
            <ellipse
               id="ellipse838"
               ry="9.25"
               rx="5.5300002"
               cy="73.625"
               cx="168.97301"
               style="fill:#3c3333;stroke-width:0.58709222" />
          </g>
        </g>
        <g
           id="g846"
           style="stroke-width:0.58709222">
          <ellipse
             id="ellipse844"
             ry="4.0489998"
             rx="4.2940001"
             cy="68.880997"
             cx="172.319"
             style="fill:#ffffff;stroke-width:0.58709222" />
        </g>
        <g
           id="g850"
           style="stroke-width:0.58709222">
          <ellipse
             id="ellipse848"
             ry="3.9360001"
             rx="4.3790002"
             cy="68.844002"
             cx="199.73599"
             style="fill:#ffffff;stroke-width:0.58709222" />
        </g>
        <g
           id="g854"
           style="stroke-width:0.58709222">
          <rect
             id="rect852"
             height="70.974998"
             width="343.71201"
             y="143.83"
             x="129.717"
             style="fill:none;stroke-width:0.58709222" />
        </g>
        <rect
           id="rect856"
           height="82.627998"
           width="332"
           y="120.715"
           x="190.976"
           style="fill:none;stroke-width:0.58709222" />
      </g>
    </g>
  </g>
</svg>
