<?xml version="1.0" encoding="utf-8"?>
<!-- Generator: Adobe Illustrator 17.0.0, SVG Export Plug-In . SVG Version: 6.00 Build 0)  -->
<!DOCTYPE svg PUBLIC "-//W3C//DTD SVG 1.1//EN" "http://www.w3.org/Graphics/SVG/1.1/DTD/svg11.dtd">
<svg version="1.1" id="Layer_1" xmlns="http://www.w3.org/2000/svg" xmlns:xlink="http://www.w3.org/1999/xlink" x="0px" y="0px"
	 width="311.811px" height="170.079px" viewBox="141.735 0 311.811 170.079" enable-background="new 141.735 0 311.811 170.079"
	 xml:space="preserve">
<g id="Layer_1_1_" display="none">
	
		<image display="inline" overflow="visible" opacity="0.3" enable-background="new    " width="2005" height="4007" xlink:href="../../../../../Desktop/Graphic Design material/Matteuan/Logos/3D0A33F1.jpg"  transform="matrix(0.3074 0 0 0.3074 -14.5444 -7.9077)">
	</image>
</g>
<g id="Layer_2">
	<g>
		<path fill="#FDC314" d="M184.061,146.064c0-0.678-0.202-15.231-7.415-24.855c-5.652-7.541-26.341-38.865-4.509-71.124
			l-2.484-1.682c-22.958,33.922-1.219,66.992,4.824,74.876c5.341,6.969,6.505,19.193,6.576,21.83
			c-1.214,1.722-5.548,8.083-9.829,16.915l3.502,0.005C179.4,152.586,183.948,146.221,184.061,146.064z"/>
		<path fill="#FDC314" d="M404.351,96.36C404.59,96.032,404.341,95.457,404.351,96.36L404.351,96.36z"/>
	</g>
	<g>
		<path fill="#FDC314" d="M188.85,38.232c-3.042,3.236-2.585,8.361-2.962,10.796l17.221-9.559l0,0L183.57,53.746l0.329-4.278
			c0.408-2.953,0.403-4.483,1.25-6.625c-4.759,3.481-11.488,10.303-11.826,10.54l-1.057,0.742l-0.891-0.935
			c-0.151-0.158-2.346-2.553-1.926-7.135c-0.804,1.039-1.583,2.046-2.302,2.976l-2.124,4.437l-1.832-4.5
			c-0.116-0.431-2.79-11.44,3.707-21.75c5.761-9.142,18.069-14.964,33.913-17.912c39.748-7.399,54.333,11.135,61.343,20.041
			c0.749,0.951,1.396,1.773,1.983,2.454c6.731,7.794,16.392,32.079,11.979,48.373c-0.564,2.083-1.229,4.414-1.948,6.929
			c-4.703,16.47-11.81,41.359-6.763,54.819l0,0c-5.395-14.386-0.933-38.794,3.878-55.643c0.714-2.5,1.376-4.818,1.937-6.889
			c4.088-15.097-5.157-38.451-11.354-45.627c-0.633-0.732-1.299-1.579-2.07-2.559c-7.154-9.09-20.471-26.01-58.437-18.947
			C186.4,15.04,176.124,20.7,170.818,29.08c-3.691,5.83-4.573,13.871-4.358,17.431c1.067-1.378,3.469-4.915,4.813-6.646
			c1.486-1.915,3.274-3.696,4.708-4.813c1.919-1.494,3.875-2.477,4.206-2.894l0,0c-0.355,0.477-0.911,1.214-1.704,2.261
			c-5.365,7.081-6.689,14.302-5.898,16.206c2.969-2.656,12.629-9.362,15.79-11.996L188.85,38.232"/>
	</g>
</g>
<g id="Layer_3">
	<path fill="#F15A39" stroke="#F1593A" stroke-width="3" stroke-miterlimit="10" d="M175.693,85.25c0,0-29.5,18.375-24.125,22.75
		s14.619,9.609,35.25,9.125c26.625-0.625,10.138-8.574,10.138-8.574c-1.37-1.012-8.355-4.459-11.888-14.051
		C182.443,87.375,176.866,84.505,175.693,85.25z"/>
</g>
<g id="Layer_4">
	<g>
		<g>
			<ellipse fill="#3C3333" cx="196.506" cy="73.625" rx="5.53" ry="9.25"/>
		</g>
	</g>
	<g>
		<g>
			<ellipse fill="#3C3333" cx="168.973" cy="73.625" rx="5.53" ry="9.25"/>
		</g>
	</g>
	<g>
		<ellipse fill="#FFFFFF" cx="172.319" cy="68.881" rx="4.294" ry="4.049"/>
	</g>
	<g>
		<ellipse fill="#FFFFFF" cx="199.736" cy="68.844" rx="4.379" ry="3.936"/>
	</g>
	<g>
		<rect x="129.717" y="143.83" fill="none" width="343.712" height="70.975"/>
	</g>
	<rect x="190.976" y="120.715" fill="none" width="332" height="82.628"/>
	<text transform="matrix(1 0 0 1 190.9763 163.3129)" fill="#3C3333" font-family="'Bahnschrift'" font-size="60">matteuan</text>
</g>
</svg>
