<?xml version="1.0" encoding="UTF-8" standalone="no"?>
<!-- Generator: Adobe Illustrator 17.0.0, SVG Export Plug-In . SVG Version: 6.00 Build 0)  -->

<svg
   xmlns:dc="http://purl.org/dc/elements/1.1/"
   xmlns:cc="http://creativecommons.org/ns#"
   xmlns:rdf="http://www.w3.org/1999/02/22-rdf-syntax-ns#"
   xmlns:svg="http://www.w3.org/2000/svg"
   xmlns="http://www.w3.org/2000/svg"
   xmlns:xlink="http://www.w3.org/1999/xlink"
   xmlns:sodipodi="http://sodipodi.sourceforge.net/DTD/sodipodi-0.dtd"
   xmlns:inkscape="http://www.inkscape.org/namespaces/inkscape"
   version="1.1"
   x="0px"
   y="0px"
   width="283.465px"
   height="198.425px"
   viewBox="155.908 0 283.465 198.425"
   enable-background="new 155.908 0 283.465 198.425"
   xml:space="preserve"
   id="svg1100"
   sodipodi:docname="logo.svg"
   inkscape:version="0.92.2 (5c3e80d, 2017-08-06)"><metadata
     id="metadata1106"><rdf:RDF><cc:Work
         rdf:about=""><dc:format>image/svg+xml</dc:format><dc:type
           rdf:resource="http://purl.org/dc/dcmitype/StillImage" /><dc:title></dc:title></cc:Work></rdf:RDF></metadata><defs
     id="defs1104" /><sodipodi:namedview
     pagecolor="#ffffff"
     bordercolor="#666666"
     borderopacity="1"
     objecttolerance="10"
     gridtolerance="10"
     guidetolerance="10"
     inkscape:pageopacity="0"
     inkscape:pageshadow="2"
     inkscape:window-width="1920"
     inkscape:window-height="1001"
     id="namedview1102"
     showgrid="false"
     inkscape:zoom="1.8848431"
     inkscape:cx="173.77581"
     inkscape:cy="58.087862"
     inkscape:window-x="-9"
     inkscape:window-y="-9"
     inkscape:window-maximized="1"
     inkscape:current-layer="Layer_4" /><g
     id="Layer_1"><g
       id="Layer_1_1_"
       display="none"><image
         sodipodi:absref="C:\Users\Claudia\Documents\GitHub\website\graphic\logo\1BE82213.jpeg"
         xlink:href="1BE82213.jpeg"
         id="image1028"
         transform="matrix(0.308 0 0 0.308 -14.36 -8)"
         height="4000"
         width="2000"
         enable-background="new    "
         opacity="0.3"
         overflow="visible"
         display="inline" /></g><g
       id="Layer_2"><g
         id="g1037"><path
           fill="#FDC314"
           d="M211.705,146.939c0-0.678-0.202-15.231-7.415-24.855c-5.652-7.541-26.341-38.865-4.509-71.124     l-2.484-1.682c-22.958,33.922-1.219,66.992,4.824,74.876c5.341,6.969,6.505,19.193,6.576,21.83     c-1.214,1.722-5.548,8.083-9.829,16.915l3.502,0.005C207.044,153.461,211.592,147.096,211.705,146.939z"
           id="path1031" /><path
           fill="#FDC314"
           d="M431.995,97.235C432.234,96.907,431.985,96.332,431.995,97.235L431.995,97.235z"
           id="path1033" /><path
           fill="#FDC314"
           d="M431.995,97.235c-4.815,6.589-27.4,16.551-36.473,20.906l5.853-25.503c0,0-1.32,1.561-1.644,2.156     c-3.622,6.65-10.267,28.497-10.267,28.497l3.63-1.445c1.226-0.488,25.696-11.587,36.695-20.06     c-4.204,10.25-15.019,35.454-31.919,61.374l3.565,0.005C421.602,131.781,432.027,100.477,431.995,97.235z"
           id="path1035" /></g><g
         id="g1041"><path
           fill="#FDC314"
           d="M216.494,39.107c-3.042,3.236-2.585,8.361-2.962,10.796l17.221-9.559l0,0l-19.539,14.277l0.329-4.278     c0.408-2.953,0.403-4.483,1.25-6.625c-4.759,3.481-11.488,10.303-11.826,10.54L199.91,55l-0.891-0.935     c-0.151-0.158-2.346-2.553-1.926-7.135c-0.804,1.039-1.583,2.046-2.302,2.976l-2.124,4.437l-1.832-4.5     c-0.116-0.431-2.79-11.44,3.707-21.75c5.761-9.142,18.069-14.964,33.913-17.912c39.748-7.399,54.333,11.135,61.343,20.041     c0.749,0.951,1.396,1.773,1.983,2.454c6.731,7.794,16.392,32.079,11.979,48.373c-0.564,2.083-1.229,4.414-1.948,6.929     c-4.703,16.47-11.81,41.359-6.763,54.819l0,0c-5.395-14.386-0.933-38.794,3.878-55.643c0.714-2.5,1.376-4.818,1.937-6.889     c4.088-15.097-5.157-38.451-11.354-45.627c-0.633-0.732-1.299-1.579-2.07-2.559c-7.154-9.09-20.471-26.01-58.437-18.947     c-14.959,2.783-25.235,8.443-30.541,16.823c-3.691,5.83-4.573,13.871-4.358,17.431c1.067-1.378,3.469-4.915,4.813-6.646     c1.486-1.915,3.274-3.696,4.708-4.813c1.919-1.494,3.875-2.477,4.206-2.894l0,0c-0.355,0.477-0.911,1.214-1.704,2.261     c-5.365,7.081-6.689,14.302-5.898,16.206c2.969-2.656,12.629-9.362,15.79-11.996L216.494,39.107"
           id="path1039" /></g><g
         id="g1045"><path
           fill="#FDC314"
           d="M293.985,120.648l-0.578-1.284c0.794-0.642,17.986-18.017,53.889-13.992     c34.531,3.873,53.809-12.654,53.977-12.841l0,0c-1.71,3.645-8.061,16.906-54.311,15.823     C312.181,107.539,294.17,120.499,293.985,120.648z"
           id="path1043" /></g></g><g
       id="Layer_3"><path
         fill="#F15A39"
         stroke="#F1593A"
         stroke-width="3"
         stroke-miterlimit="10"
         d="M203.337,86.125c0,0-29.5,18.375-24.125,22.75    s14.619,9.609,35.25,9.125c26.625-0.625,10.138-8.574,10.138-8.574c-1.37-1.012-8.355-4.459-11.888-14.051    C210.087,88.25,204.51,85.38,203.337,86.125z"
         id="path1048" /></g><g
       id="Layer_4"><g
         id="g1053"
         style="fill:#3c3333;fill-opacity:1"><ellipse
           cx="224.15"
           cy="74.5"
           rx="5.53"
           ry="9.25"
           id="ellipse1051"
           style="fill:#3c3333;fill-opacity:1" /></g><g
         id="g1057"
         style="fill:#3c3333;fill-opacity:1"><ellipse
           cx="196.617"
           cy="74.5"
           rx="5.53"
           ry="9.25"
           id="ellipse1055"
           style="fill:#3c3333;fill-opacity:1" /></g><g
         id="g1061"><ellipse
           fill="#FFFFFF"
           cx="199.963"
           cy="69.756"
           rx="4.294"
           ry="4.049"
           id="ellipse1059" /></g><g
         id="g1065"><ellipse
           fill="#FFFFFF"
           cx="227.38"
           cy="69.719"
           rx="4.379"
           ry="3.936"
           id="ellipse1063" /></g><g
         id="g1069"><rect
           x="157.361"
           y="144.705"
           fill="none"
           width="343.712"
           height="70.975"
           id="rect1067" /></g><text
         y="189.30679"
         x="170.38341"
         style="font-size:60px;font-family:Bahnschrift;fill:#3c3333"
         font-size="60"
         id="text1204">matteuan</text>
</g></g><g
     id="Layer_2_1_"
     display="none" /></svg>